<svg width="118" height="36" viewBox="0 0 118 36" fill="none" xmlns="http://www.w3.org/2000/svg">
<g clip-path="url(#clip0_1_11367)">
<path d="M9.86945 19.7371C9.86945 17.8304 8.39875 16.4903 6.5922 16.4903C4.78564 16.4903 3.31493 17.853 3.31493 19.7371C3.31493 21.5987 4.78564 22.984 6.5922 22.984C8.40057 22.9822 9.86945 21.6439 9.86945 19.7371ZM9.89527 25.4122V23.9365C9.00398 24.9586 7.67722 25.593 6.08843 25.593C2.78717 25.593 0.28125 23.0952 0.28125 19.7371C0.28125 16.3999 2.88313 13.8587 6.16223 13.8587C7.70494 13.8587 9.00588 14.4949 9.8971 15.4926V14.0621H12.8607V25.4122H9.89527Z" fill="white"/>
<path d="M27.2558 22.8919C26.2187 22.8919 25.9308 22.5286 25.9308 21.5761V16.5372H27.8352V14.0621H25.9308V11.2932H22.8935V14.0621H18.9814V13.3721C18.9814 12.4178 19.3671 12.0545 20.4282 12.0545H21.0943V9.85231H19.6328C17.1269 9.85231 15.9459 10.624 15.9459 12.9844V14.0604H14.2593V16.5355H15.9459V25.4104H18.9833V16.5355H22.8953V22.0975C22.8953 24.4127 23.8346 25.4122 26.2925 25.4122H27.8592V22.8919H27.2558Z" fill="white"/>
<path d="M38.1487 18.7151C37.9328 17.2394 36.654 16.3546 35.1612 16.3546C33.6665 16.3546 32.4375 17.2168 32.1256 18.7151H38.1487ZM32.0998 20.4863C32.3176 22.1653 33.5945 23.1196 35.2092 23.1196C36.4861 23.1196 37.4752 22.5511 38.0527 21.6438H41.1621C40.4387 24.0494 38.1487 25.5929 35.1372 25.5929C31.4982 25.5929 28.9444 23.1873 28.9444 19.7597C28.9444 16.3321 31.6441 13.857 35.211 13.857C38.802 13.857 41.4039 16.3547 41.4039 19.7597C41.4039 20.01 41.3799 20.2586 41.3319 20.4863H32.0998Z" fill="white"/>
<path d="M60.7149 19.7371C60.7149 17.8982 59.2442 16.4903 57.4377 16.4903C55.6311 16.4903 54.1604 17.853 54.1604 19.7371C54.1604 21.5987 55.6311 22.984 57.4377 22.984C59.2442 22.9822 60.7149 21.5761 60.7149 19.7371ZM51.171 14.0621H54.1345V15.5378C55.0258 14.4932 56.3508 13.8587 57.9414 13.8587C61.1947 13.8587 63.7486 16.379 63.7486 19.7146C63.7486 23.0518 61.1467 25.5947 57.8695 25.5947C56.3508 25.5947 55.0978 25.0263 54.2305 24.0738V30.0826H51.171V14.0621Z" fill="white"/>
<path d="M74.4311 19.7371C74.4311 17.8304 72.9622 16.4903 71.1536 16.4903C69.3472 16.4903 67.8765 17.853 67.8765 19.7371C67.8765 21.5987 69.3472 22.984 71.1536 22.984C72.9622 22.9822 74.4311 21.6439 74.4311 19.7371ZM74.457 25.4122V23.9365C73.5657 24.9586 72.2386 25.593 70.6497 25.593C67.3487 25.593 64.8429 23.0952 64.8429 19.7371C64.8429 16.3999 67.4447 13.8587 70.722 13.8587C72.2646 13.8587 73.5657 14.4949 74.457 15.4926V14.0621H77.4207V25.4122H74.457Z" fill="white"/>
<path d="M45.8288 15.1745C45.8288 15.1745 46.5836 13.8587 48.4307 13.8587C49.2205 13.8587 49.7317 14.1142 49.7317 14.1142V17.01C49.7317 17.01 48.6171 16.3617 47.5929 16.492C46.5688 16.6224 45.9211 17.5088 45.9248 18.6943V25.4139H42.8653V14.0638H45.8288V15.1745Z" fill="white"/>
<path d="M91.2618 14.0621L83.7791 30.0461H80.6238L83.5615 23.8669L78.5942 14.0621H82.1706L85.0767 20.6132L88.0587 14.0621H91.2618Z" fill="white"/>
<path d="M115.148 13.8048L107.73 9.77235C105.552 8.58867 102.83 10.0678 102.83 12.4369V12.8506C102.83 13.2243 103.042 13.5702 103.386 13.7562L104.786 14.5175C105.198 14.7417 105.711 14.4619 105.711 14.0152V12.9862C105.711 12.4717 106.302 12.1501 106.774 12.4074L113.199 15.901C113.672 16.1583 113.672 16.8014 113.199 17.0569L106.774 20.5506C106.302 20.8079 105.711 20.4863 105.711 19.9718V19.4242C105.711 17.0552 102.989 15.5743 100.81 16.7597L93.3919 20.7922C91.2142 21.9759 91.2142 24.9377 93.3919 26.1213L100.81 30.1538C102.987 31.3375 105.711 29.8583 105.711 27.4893V27.0756C105.711 26.7019 105.499 26.3577 105.156 26.17L103.755 25.4069C103.344 25.1827 102.83 25.4626 102.83 25.9093V26.9383C102.83 27.4528 102.24 27.7743 101.767 27.5171L95.3422 24.0234C94.8699 23.7662 94.8699 23.1231 95.3422 22.8658L101.767 19.3721C102.24 19.1148 102.83 19.4364 102.83 19.9509V20.4985C102.83 22.8675 105.552 24.3485 107.73 23.163L115.148 19.1305C117.326 17.9503 117.326 14.9885 115.148 13.8048Z" fill="white"/>
</g>
<defs>
<clipPath id="clip0_1_11367">
<rect width="117.032" height="35.1141" fill="white" transform="translate(0.28125 0.576416)"/>
</clipPath>
</defs>
</svg>
