<svg width="107" height="36" viewBox="0 0 107 36" fill="none" xmlns="http://www.w3.org/2000/svg">
<g clip-path="url(#clip0_1_11384)">
<path d="M104.963 13.8792C104.963 13.4837 104.679 13.2201 104.21 13.2201L103.288 13.2366L103.305 15.2468H103.808V14.5547H104.109L104.545 15.2468H105.131L104.612 14.4723C104.719 14.4137 104.808 14.3277 104.87 14.2233C104.932 14.1189 104.964 14 104.963 13.8792ZM104.109 14.1428H103.791V13.632H104.159C104.226 13.6249 104.292 13.6431 104.345 13.683C104.398 13.7229 104.434 13.7814 104.444 13.8462V13.8627C104.443 13.9034 104.433 13.9434 104.415 13.9802C104.397 14.0169 104.371 14.0495 104.34 14.0759C104.308 14.1023 104.271 14.1218 104.232 14.1334C104.192 14.1449 104.15 14.1481 104.109 14.1428ZM29.8044 23.1721C28.9501 23.1721 28.3638 22.5131 28.3638 21.5409V17.1086H31.8814V13.978H28.3722L28.3387 10.3861H24.4526L24.4861 22.3483C24.4861 24.7704 26.1277 26.4181 28.5397 26.4181C29.8127 26.4181 31.0188 26.2368 31.9735 25.8084V22.7602C31.2955 23.0697 30.5508 23.2111 29.8044 23.1721ZM39.0841 13.7803C35.466 13.7803 32.6854 16.5484 32.6854 20.2228C32.6854 23.8642 35.466 26.4016 39.3018 26.4016C41.4626 26.4016 43.4894 25.6437 44.729 24.0784L41.7474 22.7437C41.1444 23.2875 40.2231 23.5017 39.4023 23.5017C38.0623 23.5017 36.7223 22.8261 36.538 21.4421H45.4325C45.5662 20.9475 45.6337 20.4379 45.6335 19.9262C45.6335 16.153 42.8362 13.7803 39.0925 13.7803H39.0841ZM36.538 19.02C36.6553 17.3723 37.8613 16.6143 39.1846 16.6143C40.6754 16.6143 41.7976 17.4382 41.7976 18.8552V19.02H36.538ZM20.7592 23.1721C19.9049 23.1721 19.3186 22.5131 19.3186 21.5409V17.1086H22.8362V13.978H19.327L19.2935 10.3861H15.4074L15.4409 22.3483C15.4409 24.7704 17.0824 26.4181 19.4945 26.4181C20.7675 26.4181 21.9736 26.2368 22.9283 25.8084V22.7602C22.2508 23.0712 21.5057 23.2127 20.7592 23.1721ZM7.1076 13.7803C3.77427 13.7803 0.273438 15.9388 0.273438 20.2887C0.273438 23.9136 2.75249 26.451 5.88482 26.451C7.67711 26.451 9.03389 25.7425 9.92166 24.4903L10.0389 26.2368H13.7994V20.437C13.7994 16.0212 10.4912 13.7803 7.1076 13.7803ZM7.1076 23.1062C5.41581 23.1062 4.19303 21.8705 4.19303 20.1239C4.19303 18.3774 5.39906 17.1416 7.1076 17.1416C8.68213 17.1416 9.98866 18.4927 9.98866 20.1239C9.98866 21.7551 8.68213 23.1062 7.1076 23.1062ZM104.025 12.3139C102.803 12.3303 102.015 13.1048 102.032 14.2581C102.049 15.4115 102.853 16.1695 104.076 16.153C105.265 16.1365 106.069 15.3621 106.052 14.1922C106.035 13.0224 105.231 12.2974 104.025 12.3139ZM104.076 15.8234C103.121 15.8399 102.468 15.2138 102.468 14.2581C102.468 13.3025 103.087 12.6599 104.042 12.6434C104.997 12.6269 105.633 13.253 105.65 14.2252C105.65 15.1644 105.014 15.807 104.084 15.8234H104.076ZM85.0304 13.9945L82.3168 21.7386L79.5698 13.9945H75.3487L80.4073 26.2204H84.1929L89.2515 13.9945H85.0304ZM95.0974 13.7803C91.4793 13.7803 88.6987 16.5484 88.6987 20.2228C88.6987 23.8642 91.4793 26.4016 95.3151 26.4016C97.4759 26.4016 99.5027 25.6437 100.742 24.0784L97.7607 22.7437C97.1577 23.2875 96.2364 23.5017 95.4156 23.5017C94.0756 23.5017 92.7356 22.8261 92.5513 21.4421H101.446C101.579 20.9475 101.647 20.4379 101.647 19.9262C101.647 16.153 98.8495 13.7803 95.0974 13.7803ZM97.8109 19.02H92.5513C92.6686 17.3723 93.8746 16.6143 95.1979 16.6143C96.6887 16.6143 97.8109 17.4382 97.8109 18.8552V19.02ZM72.3503 8.62305C70.9768 8.62305 69.9383 9.52928 69.9383 10.798C69.9383 12.0667 70.9768 13.0059 72.3503 13.0059C73.7239 13.0059 74.7624 12.0832 74.7624 10.798C74.7624 9.5128 73.7406 8.62305 72.3503 8.62305ZM54.7122 13.7638C53.9268 13.7514 53.1515 13.939 52.4618 14.3086C51.772 14.6782 51.1912 15.2171 50.7758 15.8729L50.6418 13.9945H46.8898V26.2204H50.7758V19.8108C50.8596 18.2785 52.1159 17.1086 53.4894 17.1086C55.0304 17.1086 55.734 18.2455 55.734 19.679V26.2039H59.6033V19.0859C59.6033 15.9882 57.6854 13.7638 54.7122 13.7638ZM66.5715 23.1721C65.7172 23.1721 65.1309 22.5131 65.1309 21.5409V17.1086H68.6485V13.978H65.1309L65.0974 10.3861H61.2113L61.2448 22.3483C61.2448 24.7704 62.8864 26.4181 65.2984 26.4181C66.5715 26.4181 67.7775 26.2368 68.7323 25.8084V22.7602C68.0573 23.0699 67.3152 23.2113 66.5715 23.1721ZM70.3906 13.9945V26.2204H74.3101V13.9945C73.7291 14.3733 73.0474 14.5753 72.3503 14.5753C71.6533 14.5753 70.9716 14.3733 70.3906 13.9945Z" fill="white"/>
</g>
<defs>
<clipPath id="clip0_1_11384">
<rect width="105.779" height="35.1141" fill="white" transform="translate(0.273438 0.576172)"/>
</clipPath>
</defs>
</svg>
