<svg width="88" height="36" viewBox="0 0 88 36" fill="none" xmlns="http://www.w3.org/2000/svg">
<path d="M70.7647 11.227C71.8837 11.227 72.7515 10.3629 72.7515 9.27725C72.7515 8.21375 71.8837 7.34965 70.7647 7.34965C69.6686 7.34965 68.7552 8.21375 68.7552 9.27725C68.7323 10.3629 69.6686 11.227 70.7647 11.227Z" fill="white"/>
<path d="M53.6378 12.5785H56.6294V14.351C57.3829 13.2875 59.05 12.3126 61.0138 12.3126C64.7361 12.3126 67.5678 15.3923 67.5678 19.181C67.5678 22.9476 64.7361 26.0494 61.0138 26.0494C59.05 26.0494 57.4057 25.0746 56.6294 24.0111V31.3004H53.6378V12.5785ZM60.4657 14.9492C58.0452 14.9492 56.3782 16.7881 56.3782 19.181C56.3782 21.5517 58.0452 23.4128 60.4657 23.4128C62.8635 23.4128 64.5306 21.5739 64.5306 19.181C64.5306 16.8103 62.8635 14.9492 60.4657 14.9492Z" fill="white"/>
<path d="M74.4642 12.5785H77.4557V14.3731C78.2778 13.0437 79.8304 12.3126 81.5889 12.3126C84.74 12.3126 86.7956 14.4839 86.7956 17.8295V25.7836H83.8039V18.3169C83.8039 16.2342 82.7076 14.9714 80.9723 14.9714C78.9856 14.9714 77.4557 16.478 77.4557 19.2918V25.7836H74.4642V12.5785Z" fill="white"/>
<path d="M30.8475 12.3126C29.0891 12.3126 27.5363 13.0438 26.7142 14.3731V7.34961H23.7227V25.7836H26.7142V19.2918C26.7142 16.4779 28.2442 14.9713 30.2309 14.9713C31.9664 14.9713 33.0625 16.2343 33.0625 18.3169V25.7836H36.0541V17.8295C36.0313 14.4839 33.9988 12.3126 30.8475 12.3126Z" fill="white"/>
<path d="M72.2262 12.5785H69.2347V25.7836H72.2262V12.5785Z" fill="white"/>
<path d="M44.8461 26.0494C40.827 26.0494 37.7212 23.0141 37.7212 19.181C37.7212 15.348 40.827 12.3126 44.8461 12.3126C48.8652 12.3126 51.9708 15.348 51.9708 19.181C51.9708 23.0141 48.8652 26.0494 44.8461 26.0494ZM44.8461 23.3464C47.2439 23.3464 48.9337 21.5296 48.9337 19.181C48.9337 16.8325 47.2439 15.0157 44.8461 15.0157C42.4255 15.0157 40.7356 16.8325 40.7356 19.181C40.7356 21.5296 42.4255 23.3464 44.8461 23.3464Z" fill="white"/>
<path d="M12.8284 10.8813C12.8057 11.7642 12.1676 13.0222 11.0966 13.0222C10.4356 13.0222 9.88873 12.4925 9.88873 11.8524V11.8304C9.86591 10.793 9.38741 9.88811 8.63534 9.24805C8.06563 8.78456 7.35918 8.47557 6.58435 8.38729C7.24523 7.72516 8.17957 7.32788 9.20506 7.32788C10.504 7.32788 11.689 8.05622 12.3727 9.11563C12.6917 9.64534 12.8513 10.2854 12.8284 10.8813Z" fill="white"/>
<path d="M8.58988 10.9696C9.15957 11.6758 9.50144 13.0222 8.68107 13.6843C8.15689 14.1036 7.40487 14.0374 6.97188 13.5519C6.26543 12.7794 5.28551 12.3821 4.30559 12.36C3.55357 12.338 2.80153 12.5587 2.16345 12.978C2.23182 12.0731 2.66481 11.1682 3.46241 10.5282C4.4879 9.71152 5.92359 9.46874 7.15419 9.9543C7.72391 10.1529 8.22526 10.5061 8.58988 10.9696Z" fill="white"/>
<path d="M5.39939 13.6623C6.28816 13.8389 7.47317 14.6776 7.29086 15.6929C7.17692 16.3329 6.53884 16.7523 5.87796 16.6419H5.85517C4.80689 16.4874 3.78139 16.7964 3.02936 17.3923C2.45964 17.8338 2.00387 18.4739 1.79877 19.2022C1.25184 18.4518 1.00116 17.5027 1.16068 16.5095C1.41136 15.2514 2.3457 14.1921 3.62187 13.7727C4.19159 13.5961 4.82968 13.552 5.39939 13.6623Z" fill="white"/>
<path d="M4.73851 17.7233C5.53612 17.304 6.9946 17.2157 7.51874 18.0985C7.86057 18.6503 7.65547 19.3786 7.08575 19.7097C6.1742 20.2394 5.60448 21.1002 5.39938 22.0492C5.26265 22.7555 5.33102 23.5059 5.67285 24.1901C4.76129 23.9694 3.91811 23.3956 3.41676 22.5348C2.75589 21.4092 2.77867 20.0187 3.46234 18.9152C3.78138 18.4076 4.21437 17.9882 4.73851 17.7233Z" fill="white"/>
<path d="M6.92606 21.2326C7.2679 20.416 8.31618 19.4449 9.29611 19.798C9.93421 20.0187 10.2533 20.7029 10.0253 21.2989C9.68347 22.27 9.82025 23.2852 10.2988 24.124C10.6635 24.764 11.2103 25.2717 11.9168 25.6027C11.0508 26 10.0481 26.0883 9.09101 25.7352C7.83762 25.2937 6.92606 24.2122 6.72097 22.9321C6.6526 22.3583 6.72097 21.7623 6.92606 21.2326Z" fill="white"/>
<path d="M10.937 22.5568C10.6408 21.7181 10.8003 20.3276 11.803 19.9744C12.4411 19.7538 13.1247 20.0628 13.3527 20.6807C13.74 21.6298 14.5148 22.3361 15.4492 22.6892C16.1329 22.954 16.9305 22.9982 17.6825 22.8216C17.2951 23.6603 16.5659 24.3446 15.6087 24.6977C14.3553 25.1391 12.9197 24.8742 11.9398 24.0135C11.484 23.5942 11.1194 23.1085 10.937 22.5568Z" fill="white"/>
<path d="M14.9022 21.0782C14.1274 20.6147 13.307 19.4449 13.8539 18.5621C14.1958 18.0103 14.925 17.8117 15.5175 18.1207C16.4518 18.6062 17.5001 18.6725 18.4573 18.3635C19.1637 18.1207 19.8018 17.6792 20.2576 17.0613C20.5082 17.9441 20.4171 18.9152 19.8929 19.776C19.2321 20.9016 17.9559 21.5858 16.6342 21.5417C15.9961 21.5417 15.3808 21.3872 14.9022 21.0782Z" fill="white"/>
<path d="M16.9532 17.4805C16.0416 17.6129 14.6515 17.2156 14.4693 16.2004C14.3325 15.5824 14.7883 14.9644 15.4492 14.854H15.4719C16.5202 14.6554 17.3634 14.0374 17.8647 13.2208C18.2522 12.6028 18.4345 11.8744 18.3661 11.124C19.141 11.6317 19.7334 12.4483 19.8929 13.4194C20.1209 14.6775 19.5967 16.0018 18.5712 16.7963C18.0927 17.1494 17.5229 17.4143 16.9532 17.4805Z" fill="white"/>
<path d="M16.1329 13.4637C15.5176 14.1258 14.1958 14.6997 13.3754 14.0375C12.8513 13.6182 12.7829 12.8898 13.2159 12.3822C13.8767 11.5876 14.1274 10.5724 13.9679 9.62332C13.854 8.91705 13.5121 8.23285 12.9652 7.68107C13.8996 7.59279 14.8795 7.85764 15.6771 8.4977C16.7026 9.31433 17.1811 10.6607 16.9077 11.9187C16.7937 12.4926 16.5202 13.0443 16.1329 13.4637Z" fill="white"/>
</svg>
