<svg width="82" height="36" viewBox="0 0 82 36" fill="none" xmlns="http://www.w3.org/2000/svg">
<g clip-path="url(#clip0_1_11375)">
<path d="M8.84421 22.0678C8.84421 22.5893 8.73112 23.0738 8.50492 23.5218C8.27873 23.9635 7.95824 24.3437 7.556 24.6506C7.14755 24.9635 6.66375 25.2027 6.10427 25.3744C5.54505 25.5461 4.92928 25.632 4.26309 25.632C3.46488 25.632 2.74868 25.5277 2.12051 25.3131C1.49214 25.1045 0.857497 24.7486 0.222656 24.2577L1.27228 22.595C1.77495 23.006 2.2272 23.3064 2.63598 23.4969C3.03816 23.6871 3.45287 23.7791 3.88032 23.7791C4.40187 23.7791 4.81658 23.6502 5.13733 23.3865C5.45782 23.1227 5.6086 22.773 5.6086 22.3252C5.6086 22.1351 5.57717 21.9572 5.52064 21.7916C5.46408 21.6259 5.35726 21.4542 5.20649 21.2762C5.05564 21.1045 4.84205 20.9082 4.57185 20.7058C4.30791 20.5033 3.96235 20.2456 3.5349 19.945C3.21441 19.7241 2.89399 19.491 2.58597 19.2576C2.27809 19.0184 2.00161 18.7669 1.74374 18.4968C1.4924 18.2269 1.29135 17.9264 1.13424 17.5891C0.983398 17.2578 0.901775 16.8712 0.901775 16.4479C0.901775 15.9571 1.0086 15.503 1.21593 15.0979C1.42325 14.6928 1.71233 14.3495 2.07683 14.0614C2.44126 13.7731 2.87505 13.5523 3.38986 13.3929C3.89879 13.2334 4.45148 13.1537 5.05498 13.1537C5.68962 13.1537 6.29932 13.2334 6.88948 13.3991C7.48011 13.5647 8.02712 13.804 8.53593 14.1229L7.587 15.6198C6.93983 15.178 6.25464 14.9513 5.53844 14.9513C5.10486 14.9513 4.74022 15.0617 4.45748 15.2825C4.17474 15.5034 4.03016 15.7795 4.03016 16.1168C4.03016 16.4358 4.15587 16.7242 4.4072 16.9758C4.65854 17.2334 5.09205 17.5832 5.70822 18.0494C6.33033 18.4911 6.84587 18.8837 7.24798 19.2147C7.65642 19.5459 7.97684 19.8649 8.21558 20.1595C8.45437 20.454 8.61148 20.7484 8.70571 21.0549C8.79993 21.3677 8.84395 21.699 8.84395 22.0674L8.84421 22.0678ZM19.6205 19.2645C19.6205 19.7246 19.5702 20.2217 19.4697 20.7549C19.3754 21.2887 19.2058 21.7797 18.967 22.2336C18.7283 22.6876 18.4204 23.0621 18.0368 23.3501C17.6535 23.6446 17.1632 23.7918 16.5791 23.7918C15.5988 23.7918 14.8259 23.4114 14.2604 22.6447C13.6949 21.8839 13.4122 20.835 13.4122 19.504C13.4122 18.1358 13.6949 17.0564 14.2731 16.2527C14.8449 15.4489 15.6241 15.0503 16.6044 15.0503C17.5347 15.0503 18.2695 15.4307 18.8097 16.1792C19.3501 16.9335 19.6206 17.9641 19.6206 19.2647L19.6205 19.2645ZM23.0261 19.1479C23.0261 18.2584 22.8941 17.4488 22.6365 16.7251C22.3726 15.9948 22.0081 15.3693 21.5242 14.8419C21.0404 14.3144 20.4746 13.9094 19.8151 13.6149C19.1556 13.3203 18.4267 13.1732 17.6285 13.1732C16.7489 13.1732 15.976 13.3388 15.3098 13.6579C14.6438 13.983 14.0215 14.4921 13.456 15.1912L13.4372 13.455H10.3017V31.2981H13.4312V23.7616C13.7391 24.1113 14.0344 24.4057 14.3234 24.6447C14.6062 24.8839 14.8953 25.0802 15.1903 25.2274C15.4856 25.3746 15.7935 25.4851 16.1199 25.5464C16.4467 25.6078 16.7988 25.6385 17.1696 25.6385C17.9991 25.6385 18.778 25.4728 19.4942 25.1538C20.2104 24.8287 20.8326 24.3748 21.354 23.7857C21.8755 23.1965 22.2843 22.5099 22.5797 21.7308C22.8813 20.9453 23.0258 20.0805 23.0258 19.148L23.0261 19.1479ZM24.4211 25.3501H27.638V7.89062H24.4211V25.3501ZM41.3591 25.3562V13.4435H38.1422V19.8537C38.1422 20.4243 38.1171 20.8662 38.0668 21.179C38.0165 21.4918 37.9348 21.7678 37.8217 22.0256C37.3693 23.0069 36.5334 23.5043 35.3211 23.5043C34.3721 23.5043 33.7126 23.1731 33.3352 22.5042C33.1844 22.2527 33.0838 21.9644 33.0273 21.6452C32.9707 21.3263 32.9393 20.8662 32.9393 20.2589V13.4441H29.7225V20.2133C29.7225 20.6734 29.7287 21.0658 29.7351 21.3786C29.7413 21.6914 29.7665 21.9798 29.7979 22.2252C29.8293 22.4706 29.867 22.6915 29.911 22.882C29.9487 23.0721 30.0115 23.2562 30.0932 23.428C30.3885 24.1582 30.8601 24.7103 31.5196 25.0842C32.1794 25.4583 32.99 25.6424 33.9449 25.6424C34.8058 25.6424 35.5661 25.4951 36.2196 25.2007C36.8731 24.9063 37.5079 24.4275 38.1234 23.7591L38.1297 25.3542L41.3592 25.3603L41.3591 25.3562ZM55.2229 25.3501V18.5939C55.2229 18.1338 55.2166 17.7414 55.2103 17.4163C55.204 17.0912 55.1852 16.809 55.1475 16.5697C55.1161 16.3304 55.0721 16.1218 55.0281 15.9439C54.9778 15.7599 54.9213 15.582 54.8585 15.4102C54.5631 14.6988 54.0916 14.1467 53.4321 13.7598C52.7726 13.3729 51.9617 13.1771 51.0001 13.1771C50.1392 13.1771 49.379 13.3243 48.7255 13.6187C48.0719 13.9131 47.4371 14.3977 46.8216 15.0603L46.8153 13.4652H43.5791V25.352H46.8213V18.9352C46.8213 18.3831 46.8402 17.9475 46.8841 17.6406C46.9218 17.3338 47.0036 17.0455 47.1167 16.7692C47.324 16.2907 47.6508 15.9349 48.0843 15.6898C48.5178 15.4446 49.0332 15.3217 49.636 15.3217C50.585 15.3217 51.2445 15.653 51.6219 16.3218C51.7665 16.5734 51.867 16.8617 51.9235 17.1743C51.9801 17.4872 52.0115 17.9533 52.0115 18.5548V25.3371L55.2224 25.3432L55.2229 25.3501ZM68.5332 24.5646L63.6325 18.6199L67.773 14.2892L65.335 13.265L61.0245 18.142H60.6852V7.89388H57.443V25.3534H60.6852V19.0289L65.5359 25.5901L68.5327 24.5653L68.5332 24.5646ZM81.0633 20.295V18.3501L71.314 13.5772V15.7178L78.8694 19.3066L71.314 22.9442V25.0361L81.0633 20.2944V20.295ZM72.2609 10.4891C71.6641 10.4891 71.1799 10.9675 71.1799 11.5568C71.1799 12.158 71.6641 12.6304 72.2609 12.6304C72.8644 12.6304 73.3419 12.158 73.3419 11.5568C73.3419 10.9617 72.8644 10.4891 72.2609 10.4891ZM72.2676 10.6547C72.751 10.6547 73.1405 11.0595 73.1405 11.5625C73.1405 12.0655 72.751 12.4702 72.2676 12.4644C71.7774 12.4644 71.3873 12.0656 71.3873 11.5566C71.3873 11.0597 71.7774 10.6547 72.2676 10.6547ZM72.0602 11.6671H72.1915C72.3489 11.6671 72.4243 11.7224 72.4556 11.8757C72.481 12.0353 72.5123 12.1396 72.5376 12.1764H72.745C72.7257 12.1396 72.6943 12.066 72.6697 11.8819C72.6443 11.704 72.575 11.612 72.4623 11.5936V11.5813C72.5943 11.5445 72.701 11.4464 72.701 11.293C72.701 11.1826 72.663 11.0967 72.5876 11.0476C72.5123 10.9924 72.3929 10.9556 72.2109 10.9556C72.0662 10.9556 71.9655 10.9678 71.8655 10.9863V12.1762H72.0602V11.6671V11.6671ZM72.0602 11.115C72.0915 11.1089 72.1355 11.1027 72.1982 11.1027C72.4183 11.1027 72.4936 11.207 72.4936 11.3113C72.4936 11.4586 72.3549 11.5138 72.1982 11.5138H72.0602V11.115V11.115Z" fill="white"/>
</g>
<defs>
<clipPath id="clip0_1_11375">
<rect width="81.0222" height="35.1141" fill="white" transform="translate(0.222656 0.576172)"/>
</clipPath>
</defs>
</svg>
