<svg width="61" height="36" viewBox="0 0 61 36" fill="none" xmlns="http://www.w3.org/2000/svg">
<g clip-path="url(#clip0_1_11365)">
<path fill-rule="evenodd" clip-rule="evenodd" d="M59.7319 19.4636C59.7319 15.3381 57.6826 12.0828 53.7658 12.0828C49.8325 12.0828 47.4527 15.3381 47.4527 19.4314C47.4527 24.2821 50.2622 26.7317 54.2947 26.7317C56.2613 26.7317 57.7487 26.2966 58.8725 25.6842V22.4611C57.7487 23.009 56.4597 23.3474 54.8235 23.3474C53.2205 23.3474 51.7992 22.7995 51.6174 20.8979H59.6989C59.6989 20.6884 59.7319 19.8504 59.7319 19.4636ZM51.5678 17.9327C51.5678 16.1116 52.7081 15.3542 53.7493 15.3542C54.7574 15.3542 55.8317 16.1116 55.8317 17.9327H51.5678Z" fill="white"/>
<path fill-rule="evenodd" clip-rule="evenodd" d="M41.0733 12.0827C39.4537 12.0827 38.4126 12.8241 37.8341 13.3397L37.6193 12.3406H33.9835V31.1312L38.1151 30.2771L38.1316 25.7164C38.7266 26.1354 39.6025 26.7317 41.0568 26.7317C44.0151 26.7317 46.7089 24.411 46.7089 19.3025C46.6924 14.629 43.9655 12.0827 41.0733 12.0827ZM40.0818 23.1863C39.1067 23.1863 38.5283 22.8478 38.1316 22.4288L38.1151 16.45C38.5448 15.9827 39.1397 15.6604 40.0818 15.6604C41.5857 15.6604 42.6268 17.3041 42.6268 19.4153C42.6268 21.5747 41.6022 23.1863 40.0818 23.1863Z" fill="white"/>
<path fill-rule="evenodd" clip-rule="evenodd" d="M28.2983 11.1319L32.4464 10.2617V6.99023L28.2983 7.84435V11.1319Z" fill="white"/>
<path d="M32.4464 12.3567H28.2983V26.4577H32.4464V12.3567Z" fill="white"/>
<path fill-rule="evenodd" clip-rule="evenodd" d="M23.8524 13.5492L23.588 12.3567H20.0183V26.4577H24.1499V16.9012C25.125 15.6603 26.7776 15.886 27.29 16.0632V12.3567C26.7611 12.1633 24.8275 11.8088 23.8524 13.5492Z" fill="white"/>
<path fill-rule="evenodd" clip-rule="evenodd" d="M15.5893 8.85961L11.5568 9.69761L11.5403 22.6061C11.5403 24.9911 13.3748 26.7477 15.8207 26.7477C17.1759 26.7477 18.1675 26.506 18.7128 26.2159V22.9445C18.184 23.154 15.5728 23.8953 15.5728 21.5102V15.7892H18.7128V12.3567H15.5728L15.5893 8.85961Z" fill="white"/>
<path fill-rule="evenodd" clip-rule="evenodd" d="M4.41754 16.45C4.41754 15.8215 4.94639 15.5798 5.8223 15.5798C7.07831 15.5798 8.66486 15.9505 9.92087 16.6112V12.8241C8.54917 12.2923 7.194 12.0828 5.8223 12.0828C2.46741 12.0828 0.236328 13.791 0.236328 16.6434C0.236328 21.0913 6.51641 20.3822 6.51641 22.2999C6.51641 23.0412 5.85535 23.283 4.92986 23.283C3.55816 23.283 1.80635 22.7351 0.41812 21.9937V25.8292C1.95509 26.4738 3.50858 26.7478 4.92986 26.7478C8.36738 26.7478 10.7307 25.0879 10.7307 22.2032C10.7141 17.4008 4.41754 18.255 4.41754 16.45Z" fill="white"/>
</g>
<defs>
<clipPath id="clip0_1_11365">
<rect width="60.0164" height="35.1141" fill="white" transform="translate(0.236328 0.576172)"/>
</clipPath>
</defs>
</svg>
